<?xml version="1.0" encoding="UTF-8"?>
<svg version="1.1" xmlns="http://www.w3.org/2000/svg" width="2224" height="301">
<path d="M0 0 C72.6 0 145.2 0 220 0 C220 24.09 220 48.18 220 73 C292.27 73 364.54 73 439 73 C439 145.6 439 218.2 439 293 C366.4 293 293.8 293 219 293 C219 268.91 219 244.82 219 220 C146.73 220 74.46 220 0 220 C0 147.4 0 74.8 0 0 Z M74 74 C74 97.76 74 121.52 74 146 C121.85 146 169.7 146 219 146 C219 122.24 219 98.48 219 74 C171.15 74 123.3 74 74 74 Z M220 147 C220 170.76 220 194.52 220 219 C267.85 219 315.7 219 365 219 C365 195.24 365 171.48 365 147 C317.15 147 269.3 147 220 147 Z " fill="#000000" transform="translate(5,8)"/>
<path d="M0 0 C163.93576636 0 163.93576636 0 189.41796875 25.35546875 C190.27003906 26.22816406 191.12210938 27.10085937 192 28 C192.67675781 28.65613281 193.35351562 29.31226562 194.05078125 29.98828125 C209.73911413 46.2331847 211.54184212 70.26596989 211.26953125 91.58203125 C210.72220028 109.86504256 204.45036847 127.3712016 192 141 C190.87464844 142.24523437 190.87464844 142.24523437 189.7265625 143.515625 C173.34498431 160.77571053 148.4334854 170.46831562 124.78619385 171.17555237 C120.00707364 171.25481429 115.22866718 171.22593694 110.44921875 171.1953125 C108.8937596 171.19236338 107.33829845 171.19032831 105.78283691 171.18920898 C100.08436055 171.17882234 94.38592697 171.15090038 88.6875 171.125 C75.920625 171.08375 63.15375 171.0425 50 171 C50 202.68 50 234.36 50 267 C33.5 267 17 267 0 267 C0 178.89 0 90.78 0 0 Z M50 41 C50 71.36 50 101.72 50 133 C60.539375 133.0825 71.07875 133.165 81.9375 133.25 C86.87384399 133.30462402 86.87384399 133.30462402 91.90991211 133.36035156 C113.25347255 133.49878982 133.71378098 133.32679365 150.28515625 117.83984375 C158.34298402 109.19465723 160.56604468 98.65859538 160.4375 87.125 C160.42505249 85.67927612 160.42505249 85.67927612 160.41235352 84.2043457 C160.13826387 72.63503132 157.35973261 63.31178003 149 55 C133.84938549 42.16653829 115.85014575 40.82557622 96.77734375 40.90234375 C94.99221375 40.90385437 94.99221375 40.90385437 93.17102051 40.90539551 C88.75983709 40.91059555 84.34866749 40.92455664 79.9375 40.9375 C70.058125 40.958125 60.17875 40.97875 50 41 Z " fill="#000000" transform="translate(504,0)"/>
<path d="M0 0 C15.51 0 31.02 0 47 0 C47.33 40.92 47.66 81.84 48 124 C49.65 119.05 51.3 114.1 53 109 C62.24275722 89.99131062 75.53645422 75.6391455 95.3515625 67.6484375 C115.95660818 60.54148626 138.65149067 62.71324484 158.171875 71.98828125 C180.77227907 83.41804692 193.3731787 103.97955327 201.1875 127.1875 C210.50535867 159.81949878 209.205034 199.4998899 193.1105957 229.88476562 C181.89940436 249.68000266 165.35503695 263.36830636 143.73828125 270.03515625 C123.75327557 275.19325072 103.09016004 273.96258654 84.875 263.75 C64.65125871 251.31477527 55.41938224 235.25814672 48 213 C47.34 230.82 46.68 248.64 46 267 C30.82 267 15.64 267 0 267 C0 178.89 0 90.78 0 0 Z M61 117 C48.69300935 132.55909699 46.62585878 149.18612458 46.75 168.5625 C46.74226562 169.77357422 46.73453125 170.98464844 46.7265625 172.23242188 C46.76499198 190.16938212 50.11972582 207.68256597 62.4140625 221.50390625 C75.80400377 234.13530405 89.91799503 237.53180607 107.6796875 237.2734375 C120.49094701 236.81766532 131.40403548 231.41059379 140.75 222.75 C150.40427331 212.35664356 156.03293002 198.95247314 158 185 C158.11085938 184.21367187 158.22171875 183.42734375 158.3359375 182.6171875 C161.25320347 158.09638438 156.85012285 136.11684412 142.75 115.75 C131.30005842 104.30005842 118.70075126 99.06602495 102.6875 98.6875 C85.92626943 98.97444957 72.43705402 104.6335668 61 117 Z " fill="#000000" transform="translate(959,0)"/>
<path d="M0 0 C15.51 0 31.02 0 47 0 C47 42.24 47 84.48 47 128 C47.66 128 48.32 128 49 128 C49.0928125 126.2365625 49.0928125 126.2365625 49.1875 124.4375 C51.14918314 107.16379014 60.53014462 90.75218484 73.875 79.75 C91.91012388 66.14839671 111.92692542 61.58325829 134.36035156 64.28417969 C152.13204141 67.29865914 168.31254744 76.78310622 179.15625 91.2265625 C192.53957055 111.35825232 192.58090621 132.12334894 192.40557575 155.39762807 C192.38027644 159.33198687 192.37819794 163.2663628 192.37347412 167.20079041 C192.361127 174.6235262 192.32841955 182.04602148 192.28807616 189.46865219 C192.24309836 197.93076177 192.22130657 206.39288389 192.20129442 214.85508358 C192.15967769 232.23688574 192.08643117 249.61835893 192 267 C176.49 267 160.98 267 145 267 C144.9906543 263.25640137 144.98130859 259.51280273 144.97167969 255.65576172 C144.93782687 243.25050202 144.88243021 230.84541564 144.81609726 218.44029045 C144.7764226 210.92324376 144.74397174 203.40630001 144.72900391 195.88916016 C144.71592694 189.33111858 144.68881 182.7733046 144.64538693 176.21539128 C144.6229066 172.74849657 144.60708113 169.28188113 144.60811615 165.81490707 C144.93893757 139.18446612 144.93893757 139.18446612 133 116 C122.26215925 105.9565622 109.48248324 102.62865428 95 103 C81.87362068 104.55970648 70.99683756 109.18374787 62 119 C50.21650017 134.34649483 47.90669116 152.18483392 47.79467773 170.95751953 C47.78477814 172.00261185 47.77487854 173.04770416 47.76467896 174.12446594 C47.73334812 177.54389256 47.7084201 180.96333301 47.68359375 184.3828125 C47.66299962 186.76749003 47.64200254 189.15216412 47.62062073 191.53683472 C47.56565389 197.7871215 47.51613352 204.03743983 47.46777344 210.28778076 C47.40849713 217.80117207 47.34241 225.31450623 47.27747345 232.82785034 C47.17978379 244.21853174 47.09070911 255.60925125 47 267 C31.49 267 15.98 267 0 267 C0 178.89 0 90.78 0 0 Z " fill="#000000" transform="translate(1371,0)"/>
<path d="M0 0 C1.22686523 0.00563965 2.45373047 0.0112793 3.71777344 0.01708984 C29.21987158 0.35770237 52.93004806 8.94585596 71.18359375 27.0859375 C94.49792732 51.46645262 97.1875 80.63783667 97.1875 113.3125 C47.0275 113.3125 -3.1325 113.3125 -54.8125 113.3125 C-51.91844589 131.64150933 -48.97408352 147.53301511 -34.24609375 159.6484375 C-19.09432438 170.00903742 -2.66226058 172.53903098 15.35644531 170.0078125 C26.54559452 167.71739658 37.17920724 161.34038681 44.1875 152.3125 C47.76189104 146.22549847 50.40922504 139.79514156 53.1875 133.3125 C67.3775 133.3125 81.5675 133.3125 96.1875 133.3125 C92.40277772 153.49768548 87.1534029 166.74874167 73.1875 181.3125 C72.5378125 182.02535156 71.888125 182.73820313 71.21875 183.47265625 C54.02895366 201.75442736 28.47241747 207.91294378 4.3359375 209.5 C-24.04904563 210.20303364 -51.61867102 202.16771761 -72.57421875 182.515625 C-92.46173026 162.94048278 -100.01169005 136.67930947 -100.8125 109.3125 C-100.85246094 108.44367188 -100.89242188 107.57484375 -100.93359375 106.6796875 C-101.63398325 79.73529152 -94.64154079 51.97665056 -76.8125 31.3125 C-75.63300781 29.92998047 -75.63300781 29.92998047 -74.4296875 28.51953125 C-55.30295484 7.78428132 -27.49335569 -0.13324113 0 0 Z M-43.65625 54.58203125 C-50.78811269 63.61313998 -54.8125 74.81417413 -54.8125 86.3125 C-19.8325 86.3125 15.1475 86.3125 51.1875 86.3125 C48.44209954 68.46739702 43.72530151 56.29242789 29.1875 45.3125 C6.39391533 30.86533467 -25.33830132 34.92592073 -43.65625 54.58203125 Z " fill="#000000" transform="translate(2115.8125,63.6875)"/>
<path d="M0 0 C15.51 0 31.02 0 47 0 C47.029729 5.25973755 47.029729 5.25973755 47.06005859 10.62573242 C47.12713194 22.24465373 47.20467219 33.86349241 47.28752708 45.4823103 C47.33748144 52.5229345 47.38392507 59.56354806 47.421875 66.60424805 C47.45854685 73.40594951 47.50530502 80.20752359 47.55806351 87.00911903 C47.57651664 89.59685437 47.59165764 92.18461563 47.60334396 94.77239037 C47.6203626 98.41243139 47.64943407 102.05219995 47.68115234 105.69213867 C47.68331253 106.74878723 47.68547272 107.80543579 47.68769836 108.894104 C47.86345338 124.80694893 50.1626405 140.15320643 61.671875 151.91015625 C72.03378827 161.21153812 83.47523867 163.33514495 97.109375 163.21484375 C109.49746283 162.53076259 119.7558628 157.9050483 128.796875 149.48046875 C140.8259186 135.93713066 144.10629025 118.51122211 144.20532227 100.92407227 C144.21522186 99.83065018 144.22512146 98.73722809 144.23532104 97.610672 C144.26679585 94.0126051 144.2916379 90.41452503 144.31640625 86.81640625 C144.33698789 84.31533982 144.35798467 81.81427677 144.37937927 79.31321716 C144.42884991 73.41317313 144.47414735 67.51310871 144.51740164 61.61301607 C144.57176872 54.23220975 144.63265348 46.85145956 144.69335938 39.47070312 C144.800788 26.3138387 144.90177384 13.15693635 145 0 C160.51 0 176.02 0 192 0 C192 65.01 192 130.02 192 197 C177.15 197 162.3 197 147 197 C145.87685302 183.52223622 145.87685302 183.52223622 145.71875 177.28515625 C145.69113586 176.29146278 145.69113586 176.29146278 145.66296387 175.2776947 C145.60549523 173.20603262 145.55217907 171.13430157 145.5 169.0625 C145.25473925 159.34948648 144.85464736 149.68220036 144 140 C143.63648438 141.55847656 143.63648438 141.55847656 143.265625 143.1484375 C138.57507391 162.86248514 130.29484104 179.86005798 112.73046875 191.40625 C101.60863608 197.89796349 89.90418474 202.25193132 77 203 C76.3296875 203.04125 75.659375 203.0825 74.96875 203.125 C55.92155426 203.69357301 36.42257439 197.97229923 22.29956055 184.88745117 C7.14645764 170.09723965 0.13026372 151.2073708 -0.24050903 130.23564148 C-0.24621435 127.80642956 -0.24120208 125.37717545 -0.22705078 122.94799805 C-0.22648488 121.59634408 -0.22680671 120.2446895 -0.22793579 118.89303589 C-0.22850333 115.26783267 -0.21684749 111.64276517 -0.20278788 108.01759315 C-0.19017929 104.21264847 -0.18910211 100.40769977 -0.18673706 96.60273743 C-0.18055177 89.417241 -0.16418144 82.23180633 -0.14403808 75.04633695 C-0.12158654 66.85756639 -0.11066251 58.66879268 -0.10064721 50.47999895 C-0.07981216 33.6532909 -0.0431734 16.82666781 0 0 Z " fill="#000000" transform="translate(736,70)"/>
<path d="M0 0 C73.59 0 147.18 0 223 0 C223 13.53 223 27.06 223 41 C194.62 41 166.24 41 137 41 C137 115.58 137 190.16 137 267 C120.17 267 103.34 267 86 267 C86 192.42 86 117.84 86 41 C57.62 41 29.24 41 0 41 C0 27.47 0 13.94 0 0 Z " fill="#000000" transform="translate(1135,0)"/>
<path d="M0 0 C16.5 0 33 0 50 0 C58.04807611 20.69505285 58.04807611 20.69505285 60.875 28.74609375 C61.20159607 29.66891647 61.52819214 30.5917392 61.86468506 31.54252625 C62.91270696 34.50649706 63.95653492 37.47192223 65 40.4375 C65.74497963 42.54871391 66.49009947 44.65987835 67.23535156 46.77099609 C69.49569185 53.17874975 71.74911747 59.58891868 74 66 C74.51228149 67.45886627 74.51228149 67.45886627 75.03491211 68.94720459 C84.15234383 94.92077971 93.12795774 120.94163515 102 147 C104.97193073 139.76271562 107.66227556 132.4529327 110.23828125 125.06640625 C110.63584625 123.93200104 111.03341125 122.79759583 111.44302368 121.6288147 C112.51319153 118.57377744 113.58139885 115.51806373 114.6487236 112.46203232 C115.76936577 109.25508489 116.89281481 106.04912089 118.01586914 102.84301758 C122.0878945 91.21470293 126.14856472 79.5824504 130.1953125 67.9453125 C136.18283212 50.72886435 142.20176179 33.52590841 148.375 16.375 C148.65689178 15.58926605 148.93878357 14.8035321 149.22921753 13.99398804 C150.01166682 11.81516146 150.79803646 9.6377976 151.5859375 7.4609375 C152.0298584 6.23165527 152.4737793 5.00237305 152.93115234 3.73583984 C154 1 154 1 155 0 C156.5348297 -0.09319449 158.07392082 -0.117458 159.61157227 -0.11352539 C160.59251358 -0.11344986 161.5734549 -0.11337433 162.5841217 -0.11329651 C163.6507756 -0.10813522 164.7174295 -0.10297394 165.81640625 -0.09765625 C167.44569313 -0.09553383 167.44569313 -0.09553383 169.1078949 -0.09336853 C172.59279075 -0.08775048 176.07762342 -0.07519492 179.5625 -0.0625 C181.91861887 -0.05748733 184.27473874 -0.05292402 186.63085938 -0.04882812 C192.42059464 -0.03777519 198.21029281 -0.02101951 204 0 C202.16108877 6.40597832 200.09696589 12.64332431 197.65625 18.84375 C197.33524826 19.66915283 197.01424652 20.49455566 196.68351746 21.3449707 C195.9895211 23.12879156 195.29388928 24.91197686 194.59677124 26.69458008 C192.67686494 31.60548873 190.77053863 36.52166804 188.86328125 41.4375 C188.26372368 42.98177673 188.26372368 42.98177673 187.65205383 44.55725098 C183.27300807 55.84968874 178.9789001 67.174035 174.6875 78.5 C166.05201269 101.27702076 157.32277386 124.01725753 148.5637207 146.74700928 C145.85132525 153.78647226 143.14461819 160.82809954 140.44140625 167.87109375 C139.73406583 169.7133038 139.02670951 171.55550775 138.31933594 173.39770508 C137.32585879 175.98502183 136.33265208 178.57244022 135.3404541 181.1602478 C134.45312353 183.47436364 133.56459187 185.7880148 132.67578125 188.1015625 C132.41640274 188.77904037 132.15702423 189.45651825 131.88978577 190.15452576 C130.11388621 194.77222758 130.11388621 194.77222758 129 197 C110.85 197 92.7 197 74 197 C71.298125 189.884375 68.59625 182.76875 65.8125 175.4375 C52.52921204 140.47280268 39.18773372 105.53034824 25.80465698 70.60372925 C24.70137711 67.72372484 23.59873198 64.84347833 22.49633789 61.96313477 C21.77490798 60.0782856 21.05347246 58.19343859 20.33203125 56.30859375 C19.97839005 55.38460281 19.62474884 54.46061188 19.26039124 53.50862122 C17.01033022 47.63195104 14.7534644 41.75793414 12.49281311 35.8853302 C10.97768256 31.94686124 9.46653686 28.00687103 7.95620728 24.06655884 C7.24135343 22.2043554 6.52472851 20.34283076 5.8062439 18.48202515 C4.8220074 15.93244507 3.84388669 13.38060008 2.8671875 10.828125 C2.57442429 10.07431046 2.28166107 9.32049591 1.98002625 8.5438385 C0.84133018 5.55229488 0 3.22999307 0 0 Z " fill="#000000" transform="translate(1818,70)"/>
<path d="M0 0 C0 13.2 0 26.4 0 40 C-6.4659375 40.86625 -6.4659375 40.86625 -13.0625 41.75 C-32.88082935 44.55307465 -55.98682071 48.36223006 -68.8515625 65.4609375 C-75.25965034 74.97762965 -78.95114707 84.70145646 -81.25 95.875 C-81.41330811 96.66447021 -81.57661621 97.45394043 -81.74487305 98.26733398 C-84.28486064 111.6384674 -84.18204072 125.30794639 -84.31640625 138.8671875 C-84.33703362 140.6408022 -84.35803133 142.41441263 -84.37937927 144.1880188 C-84.43400403 148.80739839 -84.4836705 153.42681782 -84.53222656 158.04626465 C-84.59182322 163.61494707 -84.65771597 169.18355829 -84.72252655 174.75218201 C-84.81978368 183.16807706 -84.90915229 191.58402235 -85 200 C-100.51 200 -116.02 200 -132 200 C-132 134.99 -132 69.98 -132 3 C-116.82 3 -101.64 3 -86 3 C-85.34 26.76 -84.68 50.52 -84 75 C-82.35 67.41 -80.7 59.82 -79 52 C-73.29227849 34.75275456 -65.93115974 18.92826105 -49.5 9.5625 C-47.68288247 8.67435829 -45.84954292 7.81847589 -44 7 C-43.1853125 6.62359375 -42.370625 6.2471875 -41.53125 5.859375 C-35.74344425 3.46565287 -29.83675267 2.27589624 -23.6875 1.25 C-22.94177734 1.12214111 -22.19605469 0.99428223 -21.42773438 0.86254883 C-14.10889512 -0.24572809 -7.6431357 0 0 0 Z " fill="#000000" transform="translate(1725,67)"/>
<path d="M0 0 C15.51 0 31.02 0 47 0 C47 65.01 47 130.02 47 197 C31.49 197 15.98 197 0 197 C0 131.99 0 66.98 0 0 Z " fill="#000000" transform="translate(1746,69)"/>
<path d="M0 0 C19.8 0 39.6 0 60 0 C60 19.47 60 38.94 60 59 C40.2 59 20.4 59 0 59 C0 39.53 0 20.06 0 0 Z " fill="#000000" transform="translate(238,9)"/>
<path d="M0 0 C7.06564241 -0.12658532 14.13099346 -0.21426063 21.19750977 -0.2746582 C23.60224332 -0.29983101 26.00690015 -0.33397182 28.41137695 -0.37719727 C31.86428733 -0.43772467 35.31618795 -0.46618244 38.76953125 -0.48828125 C40.38683891 -0.52699089 40.38683891 -0.52699089 42.03681946 -0.56648254 C44.78164357 -0.5675183 47.30718297 -0.53118598 50 0 C54.47070708 4.84456939 54.08830475 11.70092771 54 18 C53.0593432 26.61443595 48.37859112 32.38929705 42 38 C34.79278245 43.38805474 25.56168382 42.97331013 17 42 C8.78690716 39.68540111 3.26753601 34.37976465 -1.09375 27.19921875 C-3.96380873 20.99404547 -3.76639118 13.6645978 -3 7 C-2.11128418 4.60982301 -1.04607623 2.32848051 0 0 Z " fill="#000000" transform="translate(1744,0)"/>
</svg>
